<svg width="41" height="40" viewBox="0 0 41 40" fill="none" xmlns="http://www.w3.org/2000/svg">
<g clip-path="url(#clip0_2451_987)">
<path d="M40.5 20.0745C40.5 8.98647 31.5469 0 20.5 0C9.45312 0 0.5 8.98647 0.5 20.0745C0.5 29.4844 6.96094 37.3887 15.6719 39.5609V26.2066H11.5469V20.0745H15.6719V17.4319C15.6719 10.6018 18.75 7.43384 25.4375 7.43384C26.7031 7.43384 28.8906 7.68477 29.7891 7.9357V13.4876C29.3203 13.4405 28.5 13.4091 27.4766 13.4091C24.1953 13.4091 22.9297 14.656 22.9297 17.8945V20.0745H29.4609L28.3359 26.2066H22.9219V40C32.8281 38.8002 40.5 30.3391 40.5 20.0745Z" fill="#1877F2"/>
</g>
<defs>
<clipPath id="clip0_2451_987">
<rect width="40" height="40" fill="white" transform="translate(0.5)"/>
</clipPath>
</defs>
</svg>
