<svg width="28" height="18" viewBox="0 0 28 18" fill="none" xmlns="http://www.w3.org/2000/svg">
<path d="M8.42222 0.666504C9.19192 0.666504 9.90241 0.725397 10.5537 0.902075C11.205 1.01986 11.7378 1.25543 12.2115 1.5499C12.6852 1.84436 13.0404 2.25661 13.2772 2.78665C13.5141 3.31668 13.6325 3.9645 13.6325 4.67122C13.6325 5.49572 13.4549 6.20243 13.0404 6.73246C12.6852 7.2625 12.0931 7.73364 11.3826 8.087C12.3891 8.38146 13.1588 8.9115 13.6325 9.61821C14.1062 10.3249 14.4022 11.2083 14.4022 12.2095C14.4022 13.034 14.2246 13.7407 13.9285 14.3296C13.6325 14.9186 13.1588 15.4486 12.626 15.802C12.0931 16.1553 11.4418 16.4498 10.7313 16.6265C10.0208 16.8031 9.31033 16.9209 8.59984 16.9209H0.666016V0.666504H8.42222ZM7.94856 7.2625C8.59984 7.2625 9.13271 7.08582 9.54716 6.79136C9.96162 6.49689 10.1392 5.96686 10.1392 5.31904C10.1392 4.96568 10.08 4.61232 9.96161 4.37675C9.8432 4.14118 9.66558 3.9645 9.42875 3.78782C9.19192 3.67004 8.95509 3.55225 8.65905 3.49336C8.36301 3.43447 8.06697 3.43447 7.71172 3.43447H4.27768V7.2625H7.94856ZM8.12618 14.2119C8.48142 14.2119 8.83667 14.153 9.13271 14.0941C9.42875 14.0352 9.72478 13.9174 9.96161 13.7407C10.1984 13.564 10.3761 13.3874 10.5537 13.0929C10.6721 12.7984 10.7905 12.4451 10.7905 12.0328C10.7905 11.2083 10.5537 10.6194 10.08 10.2071C9.60637 9.85378 8.95509 9.67711 8.18539 9.67711H4.27768V14.2119H8.12618ZM19.5533 14.153C20.0269 14.6241 20.7374 14.8597 21.6847 14.8597C22.336 14.8597 22.9281 14.683 23.4018 14.3885C23.8754 14.0352 24.1715 13.6818 24.2899 13.3285H27.191C26.7174 14.7419 26.0069 15.7431 25.0596 16.3909C24.1122 16.9798 22.9873 17.3332 21.6255 17.3332C20.6782 17.3332 19.8493 17.1565 19.0796 16.862C18.3099 16.5676 17.7178 16.1553 17.1849 15.5664C16.6521 15.0364 16.2376 14.3885 16.0008 13.6229C15.7048 12.8573 15.5863 12.0328 15.5863 11.0905C15.5863 10.2071 15.7048 9.38264 16.0008 8.61703C16.2968 7.85143 16.7113 7.20361 17.2442 6.61468C17.777 6.08464 18.4283 5.6135 19.1388 5.31904C19.9085 5.02457 20.6782 4.84789 21.6255 4.84789C22.6321 4.84789 23.5202 5.02457 24.2899 5.43682C25.0596 5.84907 25.6516 6.32021 26.1253 7.02693C26.599 7.67475 26.9542 8.44036 27.191 9.26486C27.3095 10.0894 27.3687 10.9139 27.3095 11.8561H18.7243C18.7243 12.7984 19.0796 13.6818 19.5533 14.153ZM23.2833 7.96921C22.8689 7.55696 22.2176 7.32139 21.4479 7.32139C20.915 7.32139 20.5006 7.43918 20.1453 7.61586C19.7901 7.79254 19.5533 8.02811 19.3164 8.26368C19.0796 8.49925 18.9612 8.79371 18.902 9.08818C18.8428 9.38264 18.7836 9.61821 18.7836 9.85378H24.1122C23.9938 8.97039 23.6978 8.38146 23.2833 7.96921ZM18.0731 1.78547H24.7043V3.37557H18.0731V1.78547Z" fill="#040606"/>
</svg>
