<svg width="41" height="40" viewBox="0 0 41 40" fill="none" xmlns="http://www.w3.org/2000/svg">
<path d="M20.5045 9.7445C14.8291 9.7445 10.2513 14.3233 10.2513 20C10.2513 25.6767 14.8291 30.2555 20.5045 30.2555C26.1799 30.2555 30.7577 25.6767 30.7577 20C30.7577 14.3233 26.1799 9.7445 20.5045 9.7445ZM20.5045 26.6674C16.8369 26.6674 13.8385 23.6773 13.8385 20C13.8385 16.3227 16.8279 13.3326 20.5045 13.3326C24.181 13.3326 27.1704 16.3227 27.1704 20C27.1704 23.6773 24.1721 26.6674 20.5045 26.6674ZM33.5686 9.325C33.5686 10.6549 32.4978 11.7171 31.1771 11.7171C29.8475 11.7171 28.7856 10.646 28.7856 9.325C28.7856 8.00402 29.8564 6.93295 31.1771 6.93295C32.4978 6.93295 33.5686 8.00402 33.5686 9.325ZM40.3595 11.7528C40.2078 8.54848 39.476 5.71014 37.1291 3.37164C34.7911 1.03314 31.9534 0.301238 28.7499 0.140578C25.4481 -0.0468593 15.5519 -0.0468593 12.2501 0.140578C9.05549 0.292313 6.21779 1.02421 3.87089 3.36271C1.52398 5.70122 0.801171 8.53955 0.640547 11.7438C0.453151 15.0463 0.453151 24.9448 0.640547 28.2472C0.792248 31.4515 1.52398 34.2899 3.87089 36.6284C6.21779 38.9669 9.04657 39.6988 12.2501 39.8594C15.5519 40.0469 25.4481 40.0469 28.7499 39.8594C31.9534 39.7077 34.7911 38.9758 37.1291 36.6284C39.4671 34.2899 40.1988 31.4515 40.3595 28.2472C40.5468 24.9448 40.5468 15.0552 40.3595 11.7528ZM36.094 31.7907C35.3979 33.5401 34.0505 34.8879 32.2925 35.593C29.6601 36.6373 23.4136 36.3963 20.5045 36.3963C17.5954 36.3963 11.3399 36.6284 8.7164 35.593C6.96737 34.8968 5.61991 33.549 4.91495 31.7907C3.87089 29.1576 4.11182 22.9097 4.11182 20C4.11182 17.0903 3.87981 10.8334 4.91495 8.2093C5.61099 6.45989 6.95845 5.11213 8.7164 4.40701C11.3489 3.36271 17.5954 3.6037 20.5045 3.6037C23.4136 3.6037 29.669 3.37164 32.2925 4.40701C34.0416 5.1032 35.389 6.45096 36.094 8.2093C37.138 10.8424 36.8971 17.0903 36.8971 20C36.8971 22.9097 37.138 29.1666 36.094 31.7907Z" fill="#D1A121"/>
</svg>
