<svg width="28" height="28" viewBox="0 0 28 28" fill="none" xmlns="http://www.w3.org/2000/svg">
<path d="M14 2.72501C17.6446 2.72501 18.1416 2.72501 19.6325 2.72501C20.9578 2.72501 21.6205 3.05663 22.1175 3.22245C22.7801 3.55408 23.2771 3.71989 23.7741 4.21733C24.2711 4.71478 24.6024 5.21222 24.7681 5.87548C24.9337 6.37292 25.0994 7.03618 25.2651 8.36269C25.2651 9.85502 25.2651 10.1866 25.2651 14.0004C25.2651 17.8141 25.2651 18.1457 25.2651 19.6381C25.2651 20.9646 24.9337 21.6278 24.7681 22.1253C24.4368 22.7885 24.2711 23.286 23.7741 23.7834C23.2771 24.2808 22.7801 24.6125 22.1175 24.7783C21.6205 24.9441 20.9578 25.1099 19.6325 25.2757C18.1416 25.2757 17.8102 25.2757 14 25.2757C10.1898 25.2757 9.85844 25.2757 8.36747 25.2757C7.04217 25.2757 6.37952 24.9441 5.88253 24.7783C5.21988 24.4467 4.72289 24.2808 4.22591 23.7834C3.72892 23.286 3.39759 22.7885 3.23193 22.1253C3.06627 21.6278 2.9006 20.9646 2.73494 19.6381C2.73494 18.1457 2.73494 17.8141 2.73494 14.0004C2.73494 10.1866 2.73494 9.85502 2.73494 8.36269C2.73494 7.03618 3.06627 6.37292 3.23193 5.87548C3.56325 5.21222 3.72892 4.71478 4.22591 4.21733C4.72289 3.71989 5.21988 3.38826 5.88253 3.22245C6.37952 3.05663 7.04217 2.89082 8.36747 2.72501C9.85844 2.72501 10.3554 2.72501 14 2.72501ZM14 0.237793C10.1898 0.237793 9.85844 0.237793 8.36747 0.237793C6.87651 0.237793 5.88253 0.569422 5.05422 0.901051C4.22591 1.23268 3.39759 1.73012 2.56928 2.55919C1.74096 3.38826 1.40964 4.05152 0.912652 5.04641C0.581326 5.87548 0.415663 6.87036 0.25 8.36269C0.25 9.85502 0.25 10.3525 0.25 14.0004C0.25 17.8141 0.25 18.1457 0.25 19.6381C0.25 21.1304 0.581326 22.1253 0.912652 22.9543C1.24398 23.7834 1.74096 24.6125 2.56928 25.4415C3.39759 26.2706 4.06024 26.6022 5.05422 27.0997C5.88253 27.4313 6.87651 27.5971 8.36747 27.7629C9.85844 27.7629 10.3554 27.7629 14 27.7629C17.6446 27.7629 18.1416 27.7629 19.6325 27.7629C21.1235 27.7629 22.1175 27.4313 22.9458 27.0997C23.7741 26.7681 24.6024 26.2706 25.4307 25.4415C26.259 24.6125 26.5904 23.9492 27.0874 22.9543C27.4187 22.1253 27.5843 21.1304 27.75 19.6381C27.75 18.1457 27.75 17.6483 27.75 14.0004C27.75 10.3525 27.75 9.85502 27.75 8.36269C27.75 6.87036 27.4187 5.87548 27.0874 5.04641C26.756 4.21733 26.259 3.38826 25.4307 2.55919C24.6024 1.73012 23.9398 1.39849 22.9458 0.901051C22.1175 0.569422 21.1235 0.403607 19.6325 0.237793C18.1416 0.237793 17.8102 0.237793 14 0.237793Z" fill="#040606"/>
<path d="M14 6.87036C10.0241 6.87036 6.87651 10.0208 6.87651 14.0004C6.87651 17.9799 10.0241 21.1304 14 21.1304C17.9759 21.1304 21.1235 17.9799 21.1235 14.0004C21.1235 10.0208 17.9759 6.87036 14 6.87036ZM14 18.6432C11.5151 18.6432 9.36145 16.6534 9.36145 14.0004C9.36145 11.5132 11.3494 9.35757 14 9.35757C16.4849 9.35757 18.6386 11.3473 18.6386 14.0004C18.6386 16.4876 16.4849 18.6432 14 18.6432Z" fill="#040606"/>
<path d="M21.2892 8.36269C22.2041 8.36269 22.9458 7.62031 22.9458 6.70455C22.9458 5.78878 22.2041 5.04641 21.2892 5.04641C20.3742 5.04641 19.6325 5.78878 19.6325 6.70455C19.6325 7.62031 20.3742 8.36269 21.2892 8.36269Z" fill="#040606"/>
</svg>
