<svg width="26" height="26" viewBox="0 0 26 26" fill="none" xmlns="http://www.w3.org/2000/svg">
<path d="M23.6523 0.48877H2.3477C1.32816 0.48877 0.5 1.29289 0.5 2.28081V23.7196C0.5 24.7108 1.32816 25.5116 2.3477 25.5116H23.6523C24.6718 25.5116 25.5 24.7075 25.5 23.7196V2.28081C25.5 1.28961 24.6718 0.48877 23.6523 0.48877ZM8.07886 21.4385H4.30428V10.1382H8.07886V21.4385ZM6.19157 8.5956H6.16847C4.90148 8.5956 4.08321 7.72912 4.08321 6.64274C4.08321 5.55636 4.92787 4.68988 6.21796 4.68988C7.50805 4.68988 8.30322 5.53338 8.32962 6.64274C8.32962 7.72584 7.51135 8.5956 6.19487 8.5956H6.19157ZM21.6957 21.4385H17.9211V15.3929C17.9211 13.8732 17.3734 12.8361 16.0075 12.8361C14.9648 12.8361 14.3445 13.5352 14.0707 14.2113C13.9717 14.4542 13.9453 14.789 13.9453 15.127V21.4385H10.1707C10.1707 21.4385 10.2202 11.1983 10.1707 10.1382H13.9453V11.7399C14.4468 10.9686 15.3443 9.87563 17.347 9.87563C19.8315 9.87563 21.6957 11.4904 21.6957 14.9629V21.4418V21.4385Z" fill="#040606"/>
</svg>
