<svg width="41" height="40" viewBox="0 0 41 40" fill="none" xmlns="http://www.w3.org/2000/svg">
<path d="M37.6429 0H3.34821C1.77679 0 0.5 1.29464 0.5 2.88393V37.1161C0.5 38.7054 1.77679 40 3.34821 40H37.6429C39.2143 40 40.5 38.7054 40.5 37.1161V2.88393C40.5 1.29464 39.2143 0 37.6429 0ZM12.5893 34.2857C9.31503 34.2857 6.66071 31.6314 6.66071 28.3571V18.1652C6.66071 16.5256 7.98987 15.1964 9.62946 15.1964C11.2691 15.1964 12.5982 16.5256 12.5982 18.1652V34.2768C12.5982 34.2817 12.5942 34.2857 12.5893 34.2857ZM9.625 12.5893C7.72321 12.5893 6.1875 11.0446 6.1875 9.15179C6.1875 7.25893 7.72321 5.71429 9.625 5.71429C11.5179 5.71429 13.0625 7.25893 13.0625 9.15179C13.0625 11.0536 11.5268 12.5893 9.625 12.5893ZM34.8125 31.3214C34.8125 32.9586 33.4853 34.2857 31.8482 34.2857C30.2111 34.2857 28.8839 32.9586 28.8839 31.3214V25C28.8839 22.7857 28.8393 19.9375 25.8036 19.9375C22.7143 19.9375 22.2411 22.3482 22.2411 24.8393V31.3214C22.2411 32.9586 20.9139 34.2857 19.2768 34.2857C17.6397 34.2857 16.3125 32.9586 16.3125 31.3214V18.0402C16.3125 16.4696 17.5857 15.1964 19.1562 15.1964H20.6964C21.4164 15.1964 22 15.7801 22 16.5V17.7534C22 17.7811 22.0225 17.8036 22.0502 17.8036C22.0687 17.8036 22.0856 17.7935 22.0945 17.7772C22.8978 16.2851 24.8294 14.7232 27.6964 14.7232C33.6964 14.7232 34.8125 18.6786 34.8125 23.8214V31.3214Z" fill="#0077B5"/>
</svg>
